<svg width="726" height="98" viewBox="0 0 726 98" fill="none" xmlns="http://www.w3.org/2000/svg">
<path d="M105.797 90.6689C104.5 94.1834 101.305 96.7394 97.4706 97.0589C93.6167 97.0589 89.7827 94.8224 88.5047 91.3079L65.4411 32.4407L42.3974 91.3079C40.78 94.8224 37.585 97.0589 33.751 97.0589H33.4316C29.5776 96.7394 26.0632 94.1834 25.1047 90.6689L0.44356 11.953C-1.15392 7.16057 1.72154 2.04863 6.53396 0.451145C11.3264 -1.16631 16.4583 1.72913 18.0558 6.52158L35.029 63.1523L56.7947 5.88259C58.3922 2.36813 61.6071 0.131649 65.4411 0.131649C68.9755 0.131649 72.49 2.36813 74.0875 5.88259L95.8532 63.1523L104.5 32.7602C106.117 27.9678 111.229 25.0723 116.041 26.6698C120.834 28.2873 123.729 33.3992 122.112 38.1917L105.797 90.6689Z" fill="#0062F7"/>
<path d="M130.758 9.07755C130.758 14.2095 126.605 18.3629 121.473 18.3629C116.361 18.3629 112.507 14.2095 112.507 9.07755C112.507 4.28511 116.361 0.131653 121.473 0.131653C126.605 0.131653 130.758 4.28511 130.758 9.07755Z" fill="#142042"/>
<path d="M167.58 97.0589C162.468 97.0589 158.294 92.9054 158.294 87.7935V9.07755C158.294 4.2851 162.468 0.131653 167.58 0.131653H186.47C191.602 0.131653 195.755 4.2851 195.755 9.07755C195.755 14.2095 191.602 18.3629 186.47 18.3629H176.865V39.4696H208.895C214.007 39.4696 218.18 43.3236 218.18 48.4355C218.18 53.5474 214.007 57.4014 208.895 57.4014H176.865V78.5081H214.646C219.778 78.5081 223.611 82.6616 223.611 87.7935C223.611 92.9054 219.778 97.0589 214.646 97.0589H167.58Z" fill="#0062F7"/>
<path d="M214.007 18.3629C208.895 18.3629 205.041 14.2095 205.041 9.07755C205.041 4.28511 208.895 0.131653 214.007 0.131653C219.139 0.131653 223.292 4.28511 223.292 9.07755C223.292 14.2095 219.139 18.3629 214.007 18.3629Z" fill="#142042"/>
<path d="M312.951 44.2821C317.125 40.7476 321.278 32.7602 321.278 24.1138C321.278 10.9945 311.034 0.131653 291.824 0.131653H263.329H263.01C258.197 0.131653 254.044 4.28511 254.044 9.07755V87.7935C254.044 92.9054 258.197 97.0589 263.01 97.0589C268.122 97.0589 272.295 92.9054 272.295 87.7935V55.4844H292.463C301.11 55.4844 308.798 59.9573 308.798 66.9863C308.798 71.4792 307.2 74.0352 306.881 76.5911C305.583 80.7446 306.881 84.279 311.034 86.5155C315.188 88.752 320.958 87.474 323.514 82.981C326.09 78.5081 327.368 73.3962 327.368 66.9863C327.368 57.0819 320.958 47.7965 312.951 44.2821ZM290.546 39.1501H272.295V16.1264H290.546C300.151 16.1264 304.305 21.8774 304.305 27.6483C304.305 34.6772 298.554 39.1501 290.546 39.1501Z" fill="#0062F7"/>
<path d="M290.546 97.0588C285.414 97.0588 281.58 92.9054 281.58 87.7934C281.58 82.6615 285.414 78.5081 290.546 78.5081C295.658 78.5081 299.831 82.6615 299.831 87.7934C299.831 92.9054 295.658 97.0588 290.546 97.0588Z" fill="#142042"/>
<path d="M417.985 95.7808C413.492 98.3568 408.061 97.0588 405.166 92.5859L387.873 65.7082L370.281 92.5859C367.705 97.0588 361.954 98.3568 357.78 95.7808C353.627 92.9054 352.349 87.1544 354.905 82.981L376.99 48.4355L354.905 14.2094C352.349 9.71651 353.627 4.28508 357.78 1.40961C361.954 -1.16633 367.705 0.131622 370.281 4.28507L387.873 31.4822L390.449 27.6482C393.005 23.1553 398.776 21.8773 402.929 24.7528C407.102 27.3088 408.38 33.0797 405.805 37.5526L398.776 48.4355L420.541 82.981C423.417 87.1544 422.139 92.9054 417.985 95.7808Z" fill="#0062F7"/>
<path d="M422.139 9.07755C422.139 14.2095 417.985 18.3629 412.854 18.3629C407.742 18.3629 403.888 14.2095 403.888 9.07755C403.888 4.28511 407.742 0.131653 412.854 0.131653C417.985 0.131653 422.139 4.28511 422.139 9.07755Z" fill="#142042"/>
<path d="M463.454 97.0589C458.641 97.0589 454.488 92.9054 454.488 87.7935V9.07755C454.488 4.2851 458.641 0.131653 463.454 0.131653H482.663C487.775 0.131653 491.949 4.2851 491.949 9.07755C491.949 14.2095 487.775 18.3629 482.663 18.3629H472.739V39.4696H505.068C510.2 39.4696 514.034 43.3236 514.034 48.4355C514.034 53.5475 510.2 57.4014 505.068 57.4014H472.739V78.5081H510.519C515.631 78.5081 519.805 82.6616 519.805 87.7935C519.805 92.9054 515.631 97.0589 510.519 97.0589H463.454Z" fill="#0062F7"/>
<path d="M510.2 18.3629C505.068 18.3629 500.915 14.2095 500.915 9.07755C500.915 4.28511 505.068 0.131653 510.2 0.131653C515.312 0.131653 519.485 4.28511 519.485 9.07755C519.485 14.2095 515.312 18.3629 510.2 18.3629Z" fill="#142042"/>
<path d="M578.712 97.0589H559.183C554.071 97.0589 549.897 92.9054 549.897 87.7935V9.07755C549.897 4.2851 554.071 0.131653 559.183 0.131653C564.315 0.131653 568.468 4.2851 568.468 9.07755V78.5081H578.712C583.844 78.5081 587.997 82.6616 587.997 87.7935C587.997 92.9054 583.844 97.0589 578.712 97.0589Z" fill="#0062F7"/>
<path d="M596.963 87.7934C596.963 82.6615 601.137 78.5081 606.249 78.5081C611.381 78.5081 615.534 82.6615 615.534 87.7934C615.534 92.9054 611.381 97.0588 606.249 97.0588C601.137 97.0588 596.963 92.9054 596.963 87.7934Z" fill="#142042"/>
<path d="M712.242 57.4014L687.58 5.24359C685.983 2.04863 682.788 0.131653 679.254 0.131653C675.739 0.131653 672.544 2.04863 670.927 5.24359L633.785 83.9595C631.549 88.4325 633.466 93.8639 637.959 96.1004C642.751 98.3568 648.203 96.4199 650.119 91.6274L659.085 73.3962H705.512C708.727 73.3962 711.603 71.7987 713.2 69.2227C716.395 64.7498 713.839 60.5963 712.242 57.4014ZM666.454 57.7209L679.254 30.5237L692.393 57.7209H666.454Z" fill="#0062F7"/>
<path d="M726 87.7934C726 92.9054 721.846 97.0588 716.715 97.0588C711.603 97.0588 707.429 92.9054 707.429 87.7934C707.429 82.6615 711.603 78.5081 716.715 78.5081C721.846 78.5081 726 82.6615 726 87.7934Z" fill="#142042"/>
</svg>
