<svg xmlns="http://www.w3.org/2000/svg" xmlns:xlink="http://www.w3.org/1999/xlink" width="1600" zoomAndPan="magnify" viewBox="0 0 1200 675.000002" height="900" preserveAspectRatio="xMidYMid meet" version="1.0"><defs><g/><clipPath id="3cc66dc221"><path d="M 0.886719 0 L 1199.113281 0 L 1199.113281 674 L 0.886719 674 Z M 0.886719 0 " clip-rule="nonzero"/></clipPath></defs><g clip-path="url(#3cc66dc221)"><path fill="#ffffff" d="M 0.886719 0 L 1199.113281 0 L 1199.113281 674 L 0.886719 674 Z M 0.886719 0 " fill-opacity="1" fill-rule="nonzero"/><path fill="#2a2ae1" d="M 0.886719 0 L 1199.113281 0 L 1199.113281 674 L 0.886719 674 Z M 0.886719 0 " fill-opacity="1" fill-rule="nonzero"/></g><g fill="#ffffff" fill-opacity="1"><g transform="translate(399.756104, 477.391202)"><g><path d="M 200.25 -53.59375 L 88.234375 -53.59375 L 69.703125 0 L 10.46875 0 L 111.609375 -281.625 L 177.28125 -281.625 L 278.40625 0 L 218.78125 0 Z M 184.9375 -98.71875 L 144.234375 -216.359375 L 103.546875 -98.71875 Z M 184.9375 -98.71875 "/></g></g></g><g fill="#ffffff" fill-opacity="1"><g transform="translate(688.233214, 477.391202)"><g><path d="M 84.203125 -281.234375 L 84.203125 0 L 27.796875 0 L 27.796875 -281.234375 Z M 84.203125 -281.234375 "/></g></g></g></svg>