<svg width="686" height="393" viewBox="0 0 686 393" fill="none" xmlns="http://www.w3.org/2000/svg">
<path d="M341.554 203.435C330.983 228.41 321.077 251.827 311.172 275.256C300.256 301.088 289.443 326.958 278.399 352.726C267.547 378.047 244.719 393.513 219.322 392.835C180.273 391.8 150.338 351.729 166.737 313.984C191.879 256.121 216.932 198.207 241.818 140.242C256.235 106.664 270.053 72.8433 284.522 39.2912C297.853 8.38481 329.143 -6.30144 360.535 3.43828C379.848 9.43293 392.732 22.6621 400.555 41.0167C425.722 100.03 450.736 159.108 475.993 218.07C488.877 248.133 501.62 278.272 515.373 307.926C535.121 350.489 506.17 386.956 471.046 392.401C448.052 395.967 421.299 383.402 410 360.485C399.583 339.369 391.007 317.346 381.65 295.706C369.687 268.021 357.748 240.323 345.785 212.638C344.698 210.132 343.497 207.691 341.528 203.409L341.554 203.435Z" fill="white"/>
<path d="M580.445 31.5H639.168L545.841 264.171L513.588 190.231L580.445 31.5Z" stroke="white" stroke-width="63"/>
<path d="M105.297 31.5H46.5745L139.901 264.171L172.154 190.231L105.297 31.5Z" stroke="white" stroke-width="63"/>
</svg>
