<svg width="686" height="393" viewBox="0 0 686 393" fill="none" xmlns="http://www.w3.org/2000/svg">
<path d="M341.419 203.378L341.093 203.24C330.523 228.216 320.617 251.632 310.711 275.061L311.172 275.256L310.711 275.061C307.409 282.874 304.117 290.691 300.826 298.506C293.233 316.533 285.643 334.555 277.94 352.529C267.16 377.682 244.507 393.007 219.335 392.336C180.593 391.308 150.957 351.561 167.196 314.184C192.338 256.32 217.391 198.405 242.277 140.439C249.191 124.337 255.956 108.205 262.721 92.0746C270.079 74.5283 277.436 56.9852 284.981 39.4892C298.214 8.81027 329.246 -5.7458 360.387 3.91585C379.539 9.8605 392.321 22.9717 400.095 41.2128L400.095 41.2129C409.715 63.7707 419.313 86.3386 428.911 108.906C444.421 145.375 459.931 181.843 475.533 218.267L475.993 218.07L475.533 218.267C477.139 222.014 478.743 225.763 480.347 229.511C491.609 255.835 502.878 282.172 514.92 308.136L515.373 307.926L514.92 308.136C524.725 329.27 522.431 348.851 513.359 363.824C504.278 378.811 488.39 389.206 470.97 391.907C448.182 395.441 421.647 382.978 410.449 360.264L410 360.485L410.449 360.263C403.138 345.444 396.737 330.184 390.33 314.909C387.614 308.434 384.897 301.956 382.109 295.508C376.139 281.692 370.175 267.873 364.211 254.054L364.177 253.974L364.146 253.902C358.18 240.08 352.215 226.258 346.244 212.439L346.243 212.439C345.586 210.923 344.884 209.425 344 207.538C343.447 206.358 342.823 205.026 342.094 203.442L342.146 203.319L341.907 203.081L341.882 203.055L341.419 203.378Z" fill="#2A2AE1" stroke="#2A2AE1"/>
<path d="M639.168 31.5L545.841 264.171L513.588 190.231L580.445 31.5H639.168Z" fill="#2A2AE1" stroke="#2A2AE1" stroke-width="63"/>
<path d="M46.5745 31.5L139.901 264.171L172.154 190.231L105.297 31.5H46.5745Z" fill="#2A2AE1" stroke="#2A2AE1" stroke-width="63"/>
</svg>
