<svg width="1080" height="1080" viewBox="0 0 1080 1080" fill="none" xmlns="http://www.w3.org/2000/svg">
<rect width="1080" height="1080" fill="#2A2AE1"/>
<path d="M538.554 546.435C527.983 571.41 518.077 594.827 508.172 618.256C497.256 644.088 486.443 669.958 475.399 695.726C464.547 721.047 441.719 736.513 416.322 735.835C377.273 734.8 347.338 694.729 363.737 656.984C388.879 599.121 413.932 541.207 438.818 483.242C453.235 449.664 467.053 415.843 481.522 382.291C494.853 351.385 526.143 336.699 557.535 346.438C576.848 352.433 589.732 365.662 597.555 384.017C622.722 443.03 647.736 502.108 672.993 561.07C685.877 591.133 698.62 621.272 712.373 650.926C732.121 693.489 703.17 729.956 668.046 735.401C645.052 738.967 618.299 726.402 607 703.485C596.583 682.369 588.007 660.346 578.65 638.706C566.687 611.021 554.748 583.323 542.785 555.638C541.698 553.132 540.497 550.691 538.528 546.409L538.554 546.435Z" fill="white"/>
<path d="M777.445 374.5H836.168L742.841 607.171L710.588 533.231L777.445 374.5Z" stroke="white" stroke-width="63"/>
<path d="M302.297 374.5H243.574L336.901 607.171L369.154 533.231L302.297 374.5Z" stroke="white" stroke-width="63"/>
</svg>
