<svg xmlns="http://www.w3.org/2000/svg" xmlns:xlink="http://www.w3.org/1999/xlink" width="1600" zoomAndPan="magnify" viewBox="0 0 1200 675.000002" height="900" preserveAspectRatio="xMidYMid meet" version="1.0"><defs><g/><clipPath id="3e577382f6"><path d="M 0.886719 0 L 1199.113281 0 L 1199.113281 674 L 0.886719 674 Z M 0.886719 0 " clip-rule="nonzero"/></clipPath></defs><g clip-path="url(#3e577382f6)"><path fill="#ffffff" d="M 0.886719 0 L 1199.113281 0 L 1199.113281 674 L 0.886719 674 Z M 0.886719 0 " fill-opacity="1" fill-rule="nonzero"/><path fill="#2a2ae1" d="M 0.886719 0 L 1199.113281 0 L 1199.113281 674 L 0.886719 674 Z M 0.886719 0 " fill-opacity="1" fill-rule="nonzero"/></g><g fill="#ffffff" fill-opacity="1"><g transform="translate(475.932807, 423.872045)"><g><path d="M 124.0625 -33.203125 L 54.671875 -33.203125 L 43.1875 0 L 6.484375 0 L 69.140625 -174.484375 L 109.828125 -174.484375 L 172.484375 0 L 135.546875 0 Z M 114.578125 -61.15625 L 89.359375 -134.046875 L 64.15625 -61.15625 Z M 114.578125 -61.15625 "/></g></g></g><g fill="#ffffff" fill-opacity="1"><g transform="translate(654.665928, 423.872045)"><g><path d="M 52.171875 -174.234375 L 52.171875 0 L 17.21875 0 L 17.21875 -174.234375 Z M 52.171875 -174.234375 "/></g></g></g></svg>