<svg xmlns="http://www.w3.org/2000/svg" xmlns:xlink="http://www.w3.org/1999/xlink" width="1600" zoomAndPan="magnify" viewBox="0 0 1200 675.000002" height="900" preserveAspectRatio="xMidYMid meet" version="1.0"><defs><g/><clipPath id="c3eaef2452"><path d="M 0.886719 0 L 1199.113281 0 L 1199.113281 674 L 0.886719 674 Z M 0.886719 0 " clip-rule="nonzero"/></clipPath></defs><g clip-path="url(#c3eaef2452)"><path fill="#ffffff" d="M 0.886719 0 L 1199.113281 0 L 1199.113281 674 L 0.886719 674 Z M 0.886719 0 " fill-opacity="1" fill-rule="nonzero"/><path fill="#2a2ae1" d="M 0.886719 0 L 1199.113281 0 L 1199.113281 674 L 0.886719 674 Z M 0.886719 0 " fill-opacity="1" fill-rule="nonzero"/></g><g fill="#ffffff" fill-opacity="1"><g transform="translate(341.384096, 423.872045)"><g><path d="M 124.0625 -33.203125 L 54.671875 -33.203125 L 43.1875 0 L 6.484375 0 L 69.140625 -174.484375 L 109.828125 -174.484375 L 172.484375 0 L 135.546875 0 Z M 114.578125 -61.15625 L 89.359375 -134.046875 L 64.15625 -61.15625 Z M 114.578125 -61.15625 "/></g></g></g><g fill="#ffffff" fill-opacity="1"><g transform="translate(520.117216, 423.872045)"><g><path d="M 52.171875 -118.328125 C 56.660156 -124.648438 62.859375 -129.929688 70.765625 -134.171875 C 78.671875 -138.410156 87.703125 -140.53125 97.859375 -140.53125 C 109.671875 -140.53125 120.359375 -137.617188 129.921875 -131.796875 C 139.492188 -125.972656 147.066406 -117.691406 152.640625 -106.953125 C 158.222656 -96.222656 161.015625 -83.785156 161.015625 -69.640625 C 161.015625 -55.492188 158.222656 -42.96875 152.640625 -32.0625 C 147.066406 -21.164062 139.492188 -12.722656 129.921875 -6.734375 C 120.359375 -0.742188 109.671875 2.25 97.859375 2.25 C 87.703125 2.25 78.753906 0.171875 71.015625 -3.984375 C 63.273438 -8.148438 56.992188 -13.394531 52.171875 -19.71875 L 52.171875 65.90625 L 17.21875 65.90625 L 17.21875 -138.296875 L 52.171875 -138.296875 Z M 125.3125 -69.640625 C 125.3125 -77.960938 123.601562 -85.160156 120.1875 -91.234375 C 116.78125 -97.304688 112.289062 -101.921875 106.71875 -105.078125 C 101.144531 -108.242188 95.109375 -109.828125 88.609375 -109.828125 C 82.285156 -109.828125 76.335938 -108.203125 70.765625 -104.953125 C 65.191406 -101.710938 60.695312 -97.015625 57.28125 -90.859375 C 53.875 -84.703125 52.171875 -77.460938 52.171875 -69.140625 C 52.171875 -60.828125 53.875 -53.585938 57.28125 -47.421875 C 60.695312 -41.265625 65.191406 -36.5625 70.765625 -33.3125 C 76.335938 -30.070312 82.285156 -28.453125 88.609375 -28.453125 C 95.109375 -28.453125 101.144531 -30.113281 106.71875 -33.4375 C 112.289062 -36.769531 116.78125 -41.515625 120.1875 -47.671875 C 123.601562 -53.835938 125.3125 -61.160156 125.3125 -69.640625 Z M 125.3125 -69.640625 "/></g></g></g><g fill="#ffffff" fill-opacity="1"><g transform="translate(689.364471, 423.872045)"><g><path d="M 52.171875 -118.328125 C 56.660156 -124.648438 62.859375 -129.929688 70.765625 -134.171875 C 78.671875 -138.410156 87.703125 -140.53125 97.859375 -140.53125 C 109.671875 -140.53125 120.359375 -137.617188 129.921875 -131.796875 C 139.492188 -125.972656 147.066406 -117.691406 152.640625 -106.953125 C 158.222656 -96.222656 161.015625 -83.785156 161.015625 -69.640625 C 161.015625 -55.492188 158.222656 -42.96875 152.640625 -32.0625 C 147.066406 -21.164062 139.492188 -12.722656 129.921875 -6.734375 C 120.359375 -0.742188 109.671875 2.25 97.859375 2.25 C 87.703125 2.25 78.753906 0.171875 71.015625 -3.984375 C 63.273438 -8.148438 56.992188 -13.394531 52.171875 -19.71875 L 52.171875 65.90625 L 17.21875 65.90625 L 17.21875 -138.296875 L 52.171875 -138.296875 Z M 125.3125 -69.640625 C 125.3125 -77.960938 123.601562 -85.160156 120.1875 -91.234375 C 116.78125 -97.304688 112.289062 -101.921875 106.71875 -105.078125 C 101.144531 -108.242188 95.109375 -109.828125 88.609375 -109.828125 C 82.285156 -109.828125 76.335938 -108.203125 70.765625 -104.953125 C 65.191406 -101.710938 60.695312 -97.015625 57.28125 -90.859375 C 53.875 -84.703125 52.171875 -77.460938 52.171875 -69.140625 C 52.171875 -60.828125 53.875 -53.585938 57.28125 -47.421875 C 60.695312 -41.265625 65.191406 -36.5625 70.765625 -33.3125 C 76.335938 -30.070312 82.285156 -28.453125 88.609375 -28.453125 C 95.109375 -28.453125 101.144531 -30.113281 106.71875 -33.4375 C 112.289062 -36.769531 116.78125 -41.515625 120.1875 -47.671875 C 123.601562 -53.835938 125.3125 -61.160156 125.3125 -69.640625 Z M 125.3125 -69.640625 "/></g></g></g></svg>