<svg xmlns="http://www.w3.org/2000/svg" xmlns:xlink="http://www.w3.org/1999/xlink" width="1600" zoomAndPan="magnify" viewBox="0 0 1200 675.000002" height="900" preserveAspectRatio="xMidYMid meet" version="1.0"><defs><g/><clipPath id="130561c75b"><path d="M 0.886719 0 L 1199.113281 0 L 1199.113281 674 L 0.886719 674 Z M 0.886719 0 " clip-rule="nonzero"/></clipPath></defs><g clip-path="url(#130561c75b)"><path fill="#ffffff" d="M 0.886719 0 L 1199.113281 0 L 1199.113281 674 L 0.886719 674 Z M 0.886719 0 " fill-opacity="1" fill-rule="nonzero"/><path fill="#2a2ae1" d="M 0.886719 0 L 1199.113281 0 L 1199.113281 674 L 0.886719 674 Z M 0.886719 0 " fill-opacity="1" fill-rule="nonzero"/></g><g fill="#ffffff" fill-opacity="1"><g transform="translate(297.199556, 423.872045)"><g><path d="M 124.0625 -33.203125 L 54.671875 -33.203125 L 43.1875 0 L 6.484375 0 L 69.140625 -174.484375 L 109.828125 -174.484375 L 172.484375 0 L 135.546875 0 Z M 114.578125 -61.15625 L 89.359375 -134.046875 L 64.15625 -61.15625 Z M 114.578125 -61.15625 "/></g></g></g><g fill="#ffffff" fill-opacity="1"><g transform="translate(475.932677, 423.872045)"><g><path d="M 147.78125 -138.296875 L 147.78125 0 L 112.578125 0 L 112.578125 -17.46875 C 108.085938 -11.476562 102.222656 -6.773438 94.984375 -3.359375 C 87.742188 0.046875 79.878906 1.75 71.390625 1.75 C 60.578125 1.75 51.007812 -0.535156 42.6875 -5.109375 C 34.363281 -9.691406 27.828125 -16.429688 23.078125 -25.328125 C 18.335938 -34.234375 15.96875 -44.847656 15.96875 -57.171875 L 15.96875 -138.296875 L 50.921875 -138.296875 L 50.921875 -62.15625 C 50.921875 -51.175781 53.664062 -42.726562 59.15625 -36.8125 C 64.65625 -30.90625 72.144531 -27.953125 81.625 -27.953125 C 91.28125 -27.953125 98.851562 -30.90625 104.34375 -36.8125 C 109.832031 -42.726562 112.578125 -51.175781 112.578125 -62.15625 L 112.578125 -138.296875 Z M 147.78125 -138.296875 "/></g></g></g><g fill="#ffffff" fill-opacity="1"><g transform="translate(640.936268, 423.872045)"><g><path d="M 57.90625 -109.578125 L 57.90625 -42.6875 C 57.90625 -38.03125 59.03125 -34.660156 61.28125 -32.578125 C 63.53125 -30.492188 67.316406 -29.453125 72.640625 -29.453125 L 88.859375 -29.453125 L 88.859375 0 L 66.90625 0 C 37.445312 0 22.71875 -14.3125 22.71875 -42.9375 L 22.71875 -109.578125 L 6.234375 -109.578125 L 6.234375 -138.296875 L 22.71875 -138.296875 L 22.71875 -172.484375 L 57.90625 -172.484375 L 57.90625 -138.296875 L 88.859375 -138.296875 L 88.859375 -109.578125 Z M 57.90625 -109.578125 "/></g></g></g><g fill="#ffffff" fill-opacity="1"><g transform="translate(737.791615, 423.872045)"><g><path d="M 95.109375 -140.296875 C 105.585938 -140.296875 114.90625 -138.003906 123.0625 -133.421875 C 131.21875 -128.847656 137.582031 -122.109375 142.15625 -113.203125 C 146.738281 -104.296875 149.03125 -93.601562 149.03125 -81.125 L 149.03125 0 L 114.078125 0 L 114.078125 -76.390625 C 114.078125 -87.367188 111.332031 -95.8125 105.84375 -101.71875 C 100.351562 -107.625 92.863281 -110.578125 83.375 -110.578125 C 73.71875 -110.578125 66.101562 -107.625 60.53125 -101.71875 C 54.957031 -95.8125 52.171875 -87.367188 52.171875 -76.390625 L 52.171875 0 L 17.21875 0 L 17.21875 -184.71875 L 52.171875 -184.71875 L 52.171875 -121.0625 C 56.660156 -127.050781 62.648438 -131.753906 70.140625 -135.171875 C 77.628906 -138.585938 85.953125 -140.296875 95.109375 -140.296875 Z M 95.109375 -140.296875 "/></g></g></g></svg>