<svg xmlns="http://www.w3.org/2000/svg" xmlns:xlink="http://www.w3.org/1999/xlink" width="1600" zoomAndPan="magnify" viewBox="0 0 1200 675.000002" height="900" preserveAspectRatio="xMidYMid meet" version="1.0"><defs><g/><clipPath id="fd07809a66"><path d="M 0.886719 0 L 1199.113281 0 L 1199.113281 674 L 0.886719 674 Z M 0.886719 0 " clip-rule="nonzero"/></clipPath></defs><g clip-path="url(#fd07809a66)"><path fill="#ffffff" d="M 0.886719 0 L 1199.113281 0 L 1199.113281 674 L 0.886719 674 Z M 0.886719 0 " fill-opacity="1" fill-rule="nonzero"/><path fill="#2a2ae1" d="M 0.886719 0 L 1199.113281 0 L 1199.113281 674 L 0.886719 674 Z M 0.886719 0 " fill-opacity="1" fill-rule="nonzero"/></g><g fill="#ffffff" fill-opacity="1"><g transform="translate(222.684951, 423.872045)"><g><path d="M 8.734375 -87.375 C 8.734375 -104.507812 12.601562 -119.859375 20.34375 -133.421875 C 28.082031 -146.984375 38.648438 -157.550781 52.046875 -165.125 C 65.441406 -172.695312 80.460938 -176.484375 97.109375 -176.484375 C 116.578125 -176.484375 133.632812 -171.488281 148.28125 -161.5 C 162.925781 -151.519531 173.160156 -137.707031 178.984375 -120.0625 L 138.796875 -120.0625 C 134.796875 -128.382812 129.175781 -134.625 121.9375 -138.78125 C 114.695312 -142.945312 106.335938 -145.03125 96.859375 -145.03125 C 86.703125 -145.03125 77.671875 -142.65625 69.765625 -137.90625 C 61.859375 -133.164062 55.703125 -126.46875 51.296875 -117.8125 C 46.890625 -109.164062 44.6875 -99.019531 44.6875 -87.375 C 44.6875 -75.882812 46.890625 -65.769531 51.296875 -57.03125 C 55.703125 -48.300781 61.859375 -41.5625 69.765625 -36.8125 C 77.671875 -32.070312 86.703125 -29.703125 96.859375 -29.703125 C 106.335938 -29.703125 114.695312 -31.820312 121.9375 -36.0625 C 129.175781 -40.3125 134.796875 -46.597656 138.796875 -54.921875 L 178.984375 -54.921875 C 173.160156 -37.109375 162.96875 -23.25 148.40625 -13.34375 C 133.84375 -3.445312 116.742188 1.5 97.109375 1.5 C 80.460938 1.5 65.441406 -2.285156 52.046875 -9.859375 C 38.648438 -17.429688 28.082031 -27.957031 20.34375 -41.4375 C 12.601562 -54.914062 8.734375 -70.226562 8.734375 -87.375 Z M 8.734375 -87.375 "/></g></g></g><g fill="#ffffff" fill-opacity="1"><g transform="translate(414.398666, 423.872045)"><g><path d="M 52.171875 -184.71875 L 52.171875 0 L 17.21875 0 L 17.21875 -184.71875 Z M 52.171875 -184.71875 "/></g></g></g><g fill="#ffffff" fill-opacity="1"><g transform="translate(483.795056, 423.872045)"><g><path d="M 78.625 2.25 C 65.3125 2.25 53.328125 -0.703125 42.671875 -6.609375 C 32.023438 -12.523438 23.664062 -20.890625 17.59375 -31.703125 C 11.519531 -42.515625 8.484375 -54.992188 8.484375 -69.140625 C 8.484375 -83.285156 11.601562 -95.765625 17.84375 -106.578125 C 24.082031 -117.398438 32.609375 -125.765625 43.421875 -131.671875 C 54.242188 -137.578125 66.3125 -140.53125 79.625 -140.53125 C 92.9375 -140.53125 105 -137.578125 115.8125 -131.671875 C 126.632812 -125.765625 135.164062 -117.398438 141.40625 -106.578125 C 147.65625 -95.765625 150.78125 -83.285156 150.78125 -69.140625 C 150.78125 -54.992188 147.570312 -42.515625 141.15625 -31.703125 C 134.75 -20.890625 126.09375 -12.523438 115.1875 -6.609375 C 104.289062 -0.703125 92.101562 2.25 78.625 2.25 Z M 78.625 -28.203125 C 84.957031 -28.203125 90.910156 -29.738281 96.484375 -32.8125 C 102.054688 -35.894531 106.503906 -40.515625 109.828125 -46.671875 C 113.160156 -52.835938 114.828125 -60.328125 114.828125 -69.140625 C 114.828125 -82.285156 111.375 -92.394531 104.46875 -99.46875 C 97.5625 -106.539062 89.113281 -110.078125 79.125 -110.078125 C 69.144531 -110.078125 60.785156 -106.539062 54.046875 -99.46875 C 47.304688 -92.394531 43.9375 -82.285156 43.9375 -69.140625 C 43.9375 -55.992188 47.222656 -45.882812 53.796875 -38.8125 C 60.367188 -31.738281 68.644531 -28.203125 78.625 -28.203125 Z M 78.625 -28.203125 "/></g></g></g><g fill="#ffffff" fill-opacity="1"><g transform="translate(643.057196, 423.872045)"><g><path d="M 147.78125 -138.296875 L 147.78125 0 L 112.578125 0 L 112.578125 -17.46875 C 108.085938 -11.476562 102.222656 -6.773438 94.984375 -3.359375 C 87.742188 0.046875 79.878906 1.75 71.390625 1.75 C 60.578125 1.75 51.007812 -0.535156 42.6875 -5.109375 C 34.363281 -9.691406 27.828125 -16.429688 23.078125 -25.328125 C 18.335938 -34.234375 15.96875 -44.847656 15.96875 -57.171875 L 15.96875 -138.296875 L 50.921875 -138.296875 L 50.921875 -62.15625 C 50.921875 -51.175781 53.664062 -42.726562 59.15625 -36.8125 C 64.65625 -30.90625 72.144531 -27.953125 81.625 -27.953125 C 91.28125 -27.953125 98.851562 -30.90625 104.34375 -36.8125 C 109.832031 -42.726562 112.578125 -51.175781 112.578125 -62.15625 L 112.578125 -138.296875 Z M 147.78125 -138.296875 "/></g></g></g><g fill="#ffffff" fill-opacity="1"><g transform="translate(808.060803, 423.872045)"><g><path d="M 8.234375 -69.640625 C 8.234375 -83.617188 11.019531 -96.015625 16.59375 -106.828125 C 22.175781 -117.648438 29.789062 -125.972656 39.4375 -131.796875 C 49.09375 -137.617188 59.828125 -140.53125 71.640625 -140.53125 C 80.628906 -140.53125 89.195312 -138.578125 97.34375 -134.671875 C 105.5 -130.765625 111.992188 -125.566406 116.828125 -119.078125 L 116.828125 -184.71875 L 152.265625 -184.71875 L 152.265625 0 L 116.828125 0 L 116.828125 -20.46875 C 112.492188 -13.644531 106.414062 -8.148438 98.59375 -3.984375 C 90.78125 0.171875 81.710938 2.25 71.390625 2.25 C 59.742188 2.25 49.09375 -0.742188 39.4375 -6.734375 C 29.789062 -12.722656 22.175781 -21.164062 16.59375 -32.0625 C 11.019531 -42.96875 8.234375 -55.492188 8.234375 -69.640625 Z M 117.078125 -69.140625 C 117.078125 -77.628906 115.410156 -84.910156 112.078125 -90.984375 C 108.753906 -97.054688 104.257812 -101.710938 98.59375 -104.953125 C 92.9375 -108.203125 86.863281 -109.828125 80.375 -109.828125 C 73.882812 -109.828125 67.894531 -108.242188 62.40625 -105.078125 C 56.914062 -101.921875 52.460938 -97.304688 49.046875 -91.234375 C 45.640625 -85.160156 43.9375 -77.960938 43.9375 -69.640625 C 43.9375 -61.328125 45.640625 -54.046875 49.046875 -47.796875 C 52.460938 -41.554688 56.957031 -36.769531 62.53125 -33.4375 C 68.101562 -30.113281 74.050781 -28.453125 80.375 -28.453125 C 86.863281 -28.453125 92.9375 -30.070312 98.59375 -33.3125 C 104.257812 -36.5625 108.753906 -41.222656 112.078125 -47.296875 C 115.410156 -53.378906 117.078125 -60.660156 117.078125 -69.140625 Z M 117.078125 -69.140625 "/></g></g></g></svg>