<svg xmlns="http://www.w3.org/2000/svg" xmlns:xlink="http://www.w3.org/1999/xlink" width="1600" zoomAndPan="magnify" viewBox="0 0 1200 675.000002" height="900" preserveAspectRatio="xMidYMid meet" version="1.0"><defs><g/><clipPath id="e09205faeb"><path d="M 0.886719 0 L 1199.113281 0 L 1199.113281 674 L 0.886719 674 Z M 0.886719 0 " clip-rule="nonzero"/></clipPath></defs><g clip-path="url(#e09205faeb)"><path fill="#ffffff" d="M 0.886719 0 L 1199.113281 0 L 1199.113281 674 L 0.886719 674 Z M 0.886719 0 " fill-opacity="1" fill-rule="nonzero"/><path fill="#2a2ae1" d="M 0.886719 0 L 1199.113281 0 L 1199.113281 674 L 0.886719 674 Z M 0.886719 0 " fill-opacity="1" fill-rule="nonzero"/></g><g fill="#ffffff" fill-opacity="1"><g transform="translate(108.10763, 423.872045)"><g><path d="M 78.125 -174.234375 C 96.4375 -174.234375 112.539062 -170.65625 126.4375 -163.5 C 140.332031 -156.34375 151.066406 -146.148438 158.640625 -132.921875 C 166.210938 -119.691406 170 -104.34375 170 -86.875 C 170 -69.394531 166.210938 -54.125 158.640625 -41.0625 C 151.066406 -28 140.332031 -17.890625 126.4375 -10.734375 C 112.539062 -3.578125 96.4375 0 78.125 0 L 17.21875 0 L 17.21875 -174.234375 Z M 76.890625 -29.703125 C 95.191406 -29.703125 109.332031 -34.691406 119.3125 -44.671875 C 129.300781 -54.660156 134.296875 -68.726562 134.296875 -86.875 C 134.296875 -105.007812 129.300781 -119.191406 119.3125 -129.421875 C 109.332031 -139.660156 95.191406 -144.78125 76.890625 -144.78125 L 52.171875 -144.78125 L 52.171875 -29.703125 Z M 76.890625 -29.703125 "/></g></g></g><g fill="#ffffff" fill-opacity="1"><g transform="translate(287.090371, 423.872045)"><g><path d="M 145.78125 -72.140625 C 145.78125 -67.148438 145.445312 -62.65625 144.78125 -58.65625 L 43.6875 -58.65625 C 44.519531 -48.675781 48.015625 -40.851562 54.171875 -35.1875 C 60.328125 -29.53125 67.898438 -26.703125 76.890625 -26.703125 C 89.867188 -26.703125 99.101562 -32.28125 104.59375 -43.4375 L 142.28125 -43.4375 C 138.289062 -30.125 130.632812 -19.179688 119.3125 -10.609375 C 108 -2.035156 94.109375 2.25 77.640625 2.25 C 64.316406 2.25 52.375 -0.703125 41.8125 -6.609375 C 31.25 -12.523438 23.007812 -20.890625 17.09375 -31.703125 C 11.1875 -42.515625 8.234375 -54.992188 8.234375 -69.140625 C 8.234375 -83.453125 11.144531 -96.015625 16.96875 -106.828125 C 22.800781 -117.648438 30.957031 -125.972656 41.4375 -131.796875 C 51.925781 -137.617188 63.992188 -140.53125 77.640625 -140.53125 C 90.785156 -140.53125 102.554688 -137.703125 112.953125 -132.046875 C 123.359375 -126.390625 131.429688 -118.359375 137.171875 -107.953125 C 142.910156 -97.554688 145.78125 -85.617188 145.78125 -72.140625 Z M 109.578125 -82.125 C 109.410156 -91.113281 106.164062 -98.3125 99.84375 -103.71875 C 93.519531 -109.125 85.785156 -111.828125 76.640625 -111.828125 C 67.984375 -111.828125 60.703125 -109.207031 54.796875 -103.96875 C 48.890625 -98.726562 45.269531 -91.445312 43.9375 -82.125 Z M 109.578125 -82.125 "/></g></g></g><g fill="#ffffff" fill-opacity="1"><g transform="translate(441.11036, 423.872045)"><g><path d="M 74.890625 -32.203125 L 109.828125 -138.296875 L 147.03125 -138.296875 L 95.859375 0 L 53.421875 0 L 2.5 -138.296875 L 39.9375 -138.296875 Z M 74.890625 -32.203125 "/></g></g></g><g fill="#ffffff" fill-opacity="1"><g transform="translate(590.63711, 423.872045)"><g><path d="M 98.109375 1.75 C 81.796875 1.75 66.816406 -2.078125 53.171875 -9.734375 C 39.523438 -17.390625 28.707031 -28 20.71875 -41.5625 C 12.726562 -55.125 8.734375 -70.476562 8.734375 -87.625 C 8.734375 -104.59375 12.726562 -119.859375 20.71875 -133.421875 C 28.707031 -146.984375 39.523438 -157.59375 53.171875 -165.25 C 66.816406 -172.90625 81.796875 -176.734375 98.109375 -176.734375 C 114.578125 -176.734375 129.59375 -172.90625 143.15625 -165.25 C 156.71875 -157.59375 167.453125 -146.984375 175.359375 -133.421875 C 183.265625 -119.859375 187.21875 -104.59375 187.21875 -87.625 C 187.21875 -70.476562 183.265625 -55.125 175.359375 -41.5625 C 167.453125 -28 156.675781 -17.390625 143.03125 -9.734375 C 129.382812 -2.078125 114.410156 1.75 98.109375 1.75 Z M 98.109375 -29.453125 C 108.585938 -29.453125 117.820312 -31.820312 125.8125 -36.5625 C 133.800781 -41.3125 140.039062 -48.09375 144.53125 -56.90625 C 149.019531 -65.726562 151.265625 -75.96875 151.265625 -87.625 C 151.265625 -99.269531 149.019531 -109.457031 144.53125 -118.1875 C 140.039062 -126.925781 133.800781 -133.625 125.8125 -138.28125 C 117.820312 -142.945312 108.585938 -145.28125 98.109375 -145.28125 C 87.617188 -145.28125 78.335938 -142.945312 70.265625 -138.28125 C 62.191406 -133.625 55.910156 -126.925781 51.421875 -118.1875 C 46.929688 -109.457031 44.6875 -99.269531 44.6875 -87.625 C 44.6875 -75.96875 46.929688 -65.726562 51.421875 -56.90625 C 55.910156 -48.09375 62.191406 -41.3125 70.265625 -36.5625 C 78.335938 -31.820312 87.617188 -29.453125 98.109375 -29.453125 Z M 98.109375 -29.453125 "/></g></g></g><g fill="#ffffff" fill-opacity="1"><g transform="translate(786.594473, 423.872045)"><g><path d="M 52.171875 -118.328125 C 56.660156 -124.648438 62.859375 -129.929688 70.765625 -134.171875 C 78.671875 -138.410156 87.703125 -140.53125 97.859375 -140.53125 C 109.671875 -140.53125 120.359375 -137.617188 129.921875 -131.796875 C 139.492188 -125.972656 147.066406 -117.691406 152.640625 -106.953125 C 158.222656 -96.222656 161.015625 -83.785156 161.015625 -69.640625 C 161.015625 -55.492188 158.222656 -42.96875 152.640625 -32.0625 C 147.066406 -21.164062 139.492188 -12.722656 129.921875 -6.734375 C 120.359375 -0.742188 109.671875 2.25 97.859375 2.25 C 87.703125 2.25 78.753906 0.171875 71.015625 -3.984375 C 63.273438 -8.148438 56.992188 -13.394531 52.171875 -19.71875 L 52.171875 65.90625 L 17.21875 65.90625 L 17.21875 -138.296875 L 52.171875 -138.296875 Z M 125.3125 -69.640625 C 125.3125 -77.960938 123.601562 -85.160156 120.1875 -91.234375 C 116.78125 -97.304688 112.289062 -101.921875 106.71875 -105.078125 C 101.144531 -108.242188 95.109375 -109.828125 88.609375 -109.828125 C 82.285156 -109.828125 76.335938 -108.203125 70.765625 -104.953125 C 65.191406 -101.710938 60.695312 -97.015625 57.28125 -90.859375 C 53.875 -84.703125 52.171875 -77.460938 52.171875 -69.140625 C 52.171875 -60.828125 53.875 -53.585938 57.28125 -47.421875 C 60.695312 -41.265625 65.191406 -36.5625 70.765625 -33.3125 C 76.335938 -30.070312 82.285156 -28.453125 88.609375 -28.453125 C 95.109375 -28.453125 101.144531 -30.113281 106.71875 -33.4375 C 112.289062 -36.769531 116.78125 -41.515625 120.1875 -47.671875 C 123.601562 -53.835938 125.3125 -61.160156 125.3125 -69.640625 Z M 125.3125 -69.640625 "/></g></g></g><g fill="#ffffff" fill-opacity="1"><g transform="translate(955.841712, 423.872045)"><g><path d="M 70.140625 2.25 C 58.828125 2.25 48.675781 0.210938 39.6875 -3.859375 C 30.695312 -7.941406 23.582031 -13.476562 18.34375 -20.46875 C 13.101562 -27.457031 10.234375 -35.195312 9.734375 -43.6875 L 44.9375 -43.6875 C 45.601562 -38.363281 48.222656 -33.953125 52.796875 -30.453125 C 57.367188 -26.960938 63.066406 -25.21875 69.890625 -25.21875 C 76.546875 -25.21875 81.742188 -26.546875 85.484375 -29.203125 C 89.234375 -31.867188 91.109375 -35.28125 91.109375 -39.4375 C 91.109375 -43.9375 88.820312 -47.304688 84.25 -49.546875 C 79.675781 -51.796875 72.394531 -54.253906 62.40625 -56.921875 C 52.082031 -59.410156 43.632812 -61.984375 37.0625 -64.640625 C 30.488281 -67.304688 24.832031 -71.382812 20.09375 -76.875 C 15.351562 -82.375 12.984375 -89.78125 12.984375 -99.09375 C 12.984375 -106.75 15.1875 -113.738281 19.59375 -120.0625 C 24 -126.394531 30.320312 -131.390625 38.5625 -135.046875 C 46.800781 -138.703125 56.492188 -140.53125 67.640625 -140.53125 C 84.117188 -140.53125 97.265625 -136.410156 107.078125 -128.171875 C 116.898438 -119.941406 122.3125 -108.835938 123.3125 -94.859375 L 89.859375 -94.859375 C 89.359375 -100.347656 87.070312 -104.710938 83 -107.953125 C 78.925781 -111.203125 73.476562 -112.828125 66.65625 -112.828125 C 60.332031 -112.828125 55.460938 -111.660156 52.046875 -109.328125 C 48.628906 -107.003906 46.921875 -103.757812 46.921875 -99.59375 C 46.921875 -94.9375 49.25 -91.398438 53.90625 -88.984375 C 58.570312 -86.578125 65.816406 -84.125 75.640625 -81.625 C 85.617188 -79.132812 93.851562 -76.554688 100.34375 -73.890625 C 106.832031 -71.222656 112.445312 -67.101562 117.1875 -61.53125 C 121.9375 -55.957031 124.394531 -48.59375 124.5625 -39.4375 C 124.5625 -31.445312 122.351562 -24.289062 117.9375 -17.96875 C 113.53125 -11.644531 107.207031 -6.691406 98.96875 -3.109375 C 90.738281 0.460938 81.128906 2.25 70.140625 2.25 Z M 70.140625 2.25 "/></g></g></g></svg>