<svg xmlns="http://www.w3.org/2000/svg" xmlns:xlink="http://www.w3.org/1999/xlink" width="1600" zoomAndPan="magnify" viewBox="0 0 1200 675.000002" height="900" preserveAspectRatio="xMidYMid meet" version="1.0"><defs><g/><clipPath id="fcb8c57144"><path d="M 0.886719 0 L 1199.113281 0 L 1199.113281 674 L 0.886719 674 Z M 0.886719 0 " clip-rule="nonzero"/></clipPath></defs><g clip-path="url(#fcb8c57144)"><path fill="#ffffff" d="M 0.886719 0 L 1199.113281 0 L 1199.113281 674 L 0.886719 674 Z M 0.886719 0 " fill-opacity="1" fill-rule="nonzero"/><path fill="#2a2ae1" d="M 0.886719 0 L 1199.113281 0 L 1199.113281 674 L 0.886719 674 Z M 0.886719 0 " fill-opacity="1" fill-rule="nonzero"/></g><g fill="#ffffff" fill-opacity="1"><g transform="translate(80.272892, 423.872045)"><g><path d="M 77.390625 1.75 C 65.234375 1.75 54.285156 -0.328125 44.546875 -4.484375 C 34.816406 -8.648438 27.125 -14.644531 21.46875 -22.46875 C 15.8125 -30.289062 12.898438 -39.523438 12.734375 -50.171875 L 50.171875 -50.171875 C 50.671875 -43.015625 53.207031 -37.351562 57.78125 -33.1875 C 62.363281 -29.03125 68.648438 -26.953125 76.640625 -26.953125 C 84.785156 -26.953125 91.1875 -28.90625 95.84375 -32.8125 C 100.507812 -36.726562 102.84375 -41.847656 102.84375 -48.171875 C 102.84375 -53.335938 101.257812 -57.582031 98.09375 -60.90625 C 94.9375 -64.238281 90.984375 -66.859375 86.234375 -68.765625 C 81.492188 -70.679688 74.96875 -72.804688 66.65625 -75.140625 C 55.332031 -78.460938 46.132812 -81.742188 39.0625 -84.984375 C 31.988281 -88.234375 25.914062 -93.144531 20.84375 -99.71875 C 15.769531 -106.289062 13.234375 -115.070312 13.234375 -126.0625 C 13.234375 -136.375 15.8125 -145.359375 20.96875 -153.015625 C 26.125 -160.671875 33.363281 -166.535156 42.6875 -170.609375 C 52.007812 -174.691406 62.660156 -176.734375 74.640625 -176.734375 C 92.609375 -176.734375 107.207031 -172.363281 118.4375 -163.625 C 129.675781 -154.894531 135.878906 -142.707031 137.046875 -127.0625 L 98.609375 -127.0625 C 98.273438 -133.050781 95.734375 -138 90.984375 -141.90625 C 86.242188 -145.820312 79.960938 -147.78125 72.140625 -147.78125 C 65.316406 -147.78125 59.863281 -146.03125 55.78125 -142.53125 C 51.707031 -139.039062 49.671875 -133.96875 49.671875 -127.3125 C 49.671875 -122.644531 51.207031 -118.769531 54.28125 -115.6875 C 57.363281 -112.613281 61.191406 -110.117188 65.765625 -108.203125 C 70.347656 -106.296875 76.800781 -104.09375 85.125 -101.59375 C 96.4375 -98.269531 105.671875 -94.941406 112.828125 -91.609375 C 119.984375 -88.285156 126.140625 -83.296875 131.296875 -76.640625 C 136.460938 -69.984375 139.046875 -61.242188 139.046875 -50.421875 C 139.046875 -41.097656 136.628906 -32.441406 131.796875 -24.453125 C 126.972656 -16.472656 119.898438 -10.109375 110.578125 -5.359375 C 101.265625 -0.617188 90.203125 1.75 77.390625 1.75 Z M 77.390625 1.75 "/></g></g></g><g fill="#ffffff" fill-opacity="1"><g transform="translate(232.295889, 423.872045)"><g><path d="M 145.78125 -72.140625 C 145.78125 -67.148438 145.445312 -62.65625 144.78125 -58.65625 L 43.6875 -58.65625 C 44.519531 -48.675781 48.015625 -40.851562 54.171875 -35.1875 C 60.328125 -29.53125 67.898438 -26.703125 76.890625 -26.703125 C 89.867188 -26.703125 99.101562 -32.28125 104.59375 -43.4375 L 142.28125 -43.4375 C 138.289062 -30.125 130.632812 -19.179688 119.3125 -10.609375 C 108 -2.035156 94.109375 2.25 77.640625 2.25 C 64.316406 2.25 52.375 -0.703125 41.8125 -6.609375 C 31.25 -12.523438 23.007812 -20.890625 17.09375 -31.703125 C 11.1875 -42.515625 8.234375 -54.992188 8.234375 -69.140625 C 8.234375 -83.453125 11.144531 -96.015625 16.96875 -106.828125 C 22.800781 -117.648438 30.957031 -125.972656 41.4375 -131.796875 C 51.925781 -137.617188 63.992188 -140.53125 77.640625 -140.53125 C 90.785156 -140.53125 102.554688 -137.703125 112.953125 -132.046875 C 123.359375 -126.390625 131.429688 -118.359375 137.171875 -107.953125 C 142.910156 -97.554688 145.78125 -85.617188 145.78125 -72.140625 Z M 109.578125 -82.125 C 109.410156 -91.113281 106.164062 -98.3125 99.84375 -103.71875 C 93.519531 -109.125 85.785156 -111.828125 76.640625 -111.828125 C 67.984375 -111.828125 60.703125 -109.207031 54.796875 -103.96875 C 48.890625 -98.726562 45.269531 -91.445312 43.9375 -82.125 Z M 109.578125 -82.125 "/></g></g></g><g fill="#ffffff" fill-opacity="1"><g transform="translate(386.315878, 423.872045)"><g><path d="M 8.234375 -69.140625 C 8.234375 -83.453125 11.144531 -95.972656 16.96875 -106.703125 C 22.800781 -117.441406 30.875 -125.765625 41.1875 -131.671875 C 51.507812 -137.578125 63.328125 -140.53125 76.640625 -140.53125 C 93.773438 -140.53125 107.957031 -136.242188 119.1875 -127.671875 C 130.425781 -119.109375 137.957031 -107.085938 141.78125 -91.609375 L 104.09375 -91.609375 C 102.09375 -97.597656 98.722656 -102.296875 93.984375 -105.703125 C 89.242188 -109.117188 83.378906 -110.828125 76.390625 -110.828125 C 66.398438 -110.828125 58.492188 -107.207031 52.671875 -99.96875 C 46.847656 -92.726562 43.9375 -82.453125 43.9375 -69.140625 C 43.9375 -55.992188 46.847656 -45.800781 52.671875 -38.5625 C 58.492188 -31.320312 66.398438 -27.703125 76.390625 -27.703125 C 90.535156 -27.703125 99.769531 -34.03125 104.09375 -46.6875 L 141.78125 -46.6875 C 137.957031 -31.707031 130.382812 -19.804688 119.0625 -10.984375 C 107.75 -2.160156 93.609375 2.25 76.640625 2.25 C 63.328125 2.25 51.507812 -0.703125 41.1875 -6.609375 C 30.875 -12.523438 22.800781 -20.847656 16.96875 -31.578125 C 11.144531 -42.304688 8.234375 -54.828125 8.234375 -69.140625 Z M 8.234375 -69.140625 "/></g></g></g><g fill="#ffffff" fill-opacity="1"><g transform="translate(536.591474, 423.872045)"><g><path d="M 147.78125 -138.296875 L 147.78125 0 L 112.578125 0 L 112.578125 -17.46875 C 108.085938 -11.476562 102.222656 -6.773438 94.984375 -3.359375 C 87.742188 0.046875 79.878906 1.75 71.390625 1.75 C 60.578125 1.75 51.007812 -0.535156 42.6875 -5.109375 C 34.363281 -9.691406 27.828125 -16.429688 23.078125 -25.328125 C 18.335938 -34.234375 15.96875 -44.847656 15.96875 -57.171875 L 15.96875 -138.296875 L 50.921875 -138.296875 L 50.921875 -62.15625 C 50.921875 -51.175781 53.664062 -42.726562 59.15625 -36.8125 C 64.65625 -30.90625 72.144531 -27.953125 81.625 -27.953125 C 91.28125 -27.953125 98.851562 -30.90625 104.34375 -36.8125 C 109.832031 -42.726562 112.578125 -51.175781 112.578125 -62.15625 L 112.578125 -138.296875 Z M 147.78125 -138.296875 "/></g></g></g><g fill="#ffffff" fill-opacity="1"><g transform="translate(701.59508, 423.872045)"><g><path d="M 52.171875 -116.828125 C 56.660156 -124.148438 62.523438 -129.890625 69.765625 -134.046875 C 77.003906 -138.210938 85.285156 -140.296875 94.609375 -140.296875 L 94.609375 -103.59375 L 85.375 -103.59375 C 74.382812 -103.59375 66.101562 -101.015625 60.53125 -95.859375 C 54.957031 -90.703125 52.171875 -81.710938 52.171875 -68.890625 L 52.171875 0 L 17.21875 0 L 17.21875 -138.296875 L 52.171875 -138.296875 Z M 52.171875 -116.828125 "/></g></g></g><g fill="#ffffff" fill-opacity="1"><g transform="translate(802.444495, 423.872045)"><g><path d="M 34.953125 -154.765625 C 28.796875 -154.765625 23.675781 -156.71875 19.59375 -160.625 C 15.519531 -164.539062 13.484375 -169.410156 13.484375 -175.234375 C 13.484375 -181.054688 15.519531 -185.921875 19.59375 -189.828125 C 23.675781 -193.742188 28.796875 -195.703125 34.953125 -195.703125 C 41.109375 -195.703125 46.222656 -193.742188 50.296875 -189.828125 C 54.378906 -185.921875 56.421875 -181.054688 56.421875 -175.234375 C 56.421875 -169.410156 54.378906 -164.539062 50.296875 -160.625 C 46.222656 -156.71875 41.109375 -154.765625 34.953125 -154.765625 Z M 52.171875 -138.296875 L 52.171875 0 L 17.21875 0 L 17.21875 -138.296875 Z M 52.171875 -138.296875 "/></g></g></g><g fill="#ffffff" fill-opacity="1"><g transform="translate(871.840919, 423.872045)"><g><path d="M 57.90625 -109.578125 L 57.90625 -42.6875 C 57.90625 -38.03125 59.03125 -34.660156 61.28125 -32.578125 C 63.53125 -30.492188 67.316406 -29.453125 72.640625 -29.453125 L 88.859375 -29.453125 L 88.859375 0 L 66.90625 0 C 37.445312 0 22.71875 -14.3125 22.71875 -42.9375 L 22.71875 -109.578125 L 6.234375 -109.578125 L 6.234375 -138.296875 L 22.71875 -138.296875 L 22.71875 -172.484375 L 57.90625 -172.484375 L 57.90625 -138.296875 L 88.859375 -138.296875 L 88.859375 -109.578125 Z M 57.90625 -109.578125 "/></g></g></g><g fill="#ffffff" fill-opacity="1"><g transform="translate(968.696266, 423.872045)"><g><path d="M 149.53125 -138.296875 L 63.90625 65.40625 L 26.703125 65.40625 L 56.671875 -3.5 L 1.25 -138.296875 L 40.4375 -138.296875 L 76.140625 -41.6875 L 112.328125 -138.296875 Z M 149.53125 -138.296875 "/></g></g></g></svg>
