<svg xmlns="http://www.w3.org/2000/svg" xmlns:xlink="http://www.w3.org/1999/xlink" width="1600" zoomAndPan="magnify" viewBox="0 0 1200 675.000002" height="900" preserveAspectRatio="xMidYMid meet" version="1.0"><defs><g/><clipPath id="0aad8dd06f"><path d="M 0.886719 0 L 1199.113281 0 L 1199.113281 674 L 0.886719 674 Z M 0.886719 0 " clip-rule="nonzero"/></clipPath></defs><g clip-path="url(#0aad8dd06f)"><path fill="#ffffff" d="M 0.886719 0 L 1199.113281 0 L 1199.113281 674 L 0.886719 674 Z M 0.886719 0 " fill-opacity="1" fill-rule="nonzero"/><path fill="#2a2ae1" d="M 0.886719 0 L 1199.113281 0 L 1199.113281 674 L 0.886719 674 Z M 0.886719 0 " fill-opacity="1" fill-rule="nonzero"/></g><g fill="#ffffff" fill-opacity="1"><g transform="translate(278.728875, 393.666835)"><g><path d="M 77.390625 1.75 C 65.234375 1.75 54.285156 -0.328125 44.546875 -4.484375 C 34.816406 -8.648438 27.125 -14.644531 21.46875 -22.46875 C 15.8125 -30.289062 12.898438 -39.523438 12.734375 -50.171875 L 50.171875 -50.171875 C 50.671875 -43.015625 53.207031 -37.351562 57.78125 -33.1875 C 62.363281 -29.03125 68.648438 -26.953125 76.640625 -26.953125 C 84.785156 -26.953125 91.1875 -28.90625 95.84375 -32.8125 C 100.507812 -36.726562 102.84375 -41.847656 102.84375 -48.171875 C 102.84375 -53.335938 101.257812 -57.582031 98.09375 -60.90625 C 94.9375 -64.238281 90.984375 -66.859375 86.234375 -68.765625 C 81.492188 -70.679688 74.96875 -72.804688 66.65625 -75.140625 C 55.332031 -78.460938 46.132812 -81.742188 39.0625 -84.984375 C 31.988281 -88.234375 25.914062 -93.144531 20.84375 -99.71875 C 15.769531 -106.289062 13.234375 -115.070312 13.234375 -126.0625 C 13.234375 -136.375 15.8125 -145.359375 20.96875 -153.015625 C 26.125 -160.671875 33.363281 -166.535156 42.6875 -170.609375 C 52.007812 -174.691406 62.660156 -176.734375 74.640625 -176.734375 C 92.609375 -176.734375 107.207031 -172.363281 118.4375 -163.625 C 129.675781 -154.894531 135.878906 -142.707031 137.046875 -127.0625 L 98.609375 -127.0625 C 98.273438 -133.050781 95.734375 -138 90.984375 -141.90625 C 86.242188 -145.820312 79.960938 -147.78125 72.140625 -147.78125 C 65.316406 -147.78125 59.863281 -146.03125 55.78125 -142.53125 C 51.707031 -139.039062 49.671875 -133.96875 49.671875 -127.3125 C 49.671875 -122.644531 51.207031 -118.769531 54.28125 -115.6875 C 57.363281 -112.613281 61.191406 -110.117188 65.765625 -108.203125 C 70.347656 -106.296875 76.800781 -104.09375 85.125 -101.59375 C 96.4375 -98.269531 105.671875 -94.941406 112.828125 -91.609375 C 119.984375 -88.285156 126.140625 -83.296875 131.296875 -76.640625 C 136.460938 -69.984375 139.046875 -61.242188 139.046875 -50.421875 C 139.046875 -41.097656 136.628906 -32.441406 131.796875 -24.453125 C 126.972656 -16.472656 119.898438 -10.109375 110.578125 -5.359375 C 101.265625 -0.617188 90.203125 1.75 77.390625 1.75 Z M 77.390625 1.75 "/></g></g></g><g fill="#ffffff" fill-opacity="1"><g transform="translate(430.751872, 393.666835)"><g><path d="M 8.234375 -69.640625 C 8.234375 -83.617188 11.019531 -96.015625 16.59375 -106.828125 C 22.175781 -117.648438 29.75 -125.972656 39.3125 -131.796875 C 48.882812 -137.617188 59.578125 -140.53125 71.390625 -140.53125 C 81.710938 -140.53125 90.738281 -138.453125 98.46875 -134.296875 C 106.207031 -130.140625 112.410156 -124.898438 117.078125 -118.578125 L 117.078125 -138.296875 L 152.265625 -138.296875 L 152.265625 0 L 117.078125 0 L 117.078125 -20.21875 C 112.578125 -13.726562 106.375 -8.359375 98.46875 -4.109375 C 90.570312 0.128906 81.460938 2.25 71.140625 2.25 C 59.492188 2.25 48.882812 -0.742188 39.3125 -6.734375 C 29.75 -12.722656 22.175781 -21.164062 16.59375 -32.0625 C 11.019531 -42.96875 8.234375 -55.492188 8.234375 -69.640625 Z M 117.078125 -69.140625 C 117.078125 -77.628906 115.410156 -84.910156 112.078125 -90.984375 C 108.753906 -97.054688 104.257812 -101.710938 98.59375 -104.953125 C 92.9375 -108.203125 86.863281 -109.828125 80.375 -109.828125 C 73.882812 -109.828125 67.894531 -108.242188 62.40625 -105.078125 C 56.914062 -101.921875 52.460938 -97.304688 49.046875 -91.234375 C 45.640625 -85.160156 43.9375 -77.960938 43.9375 -69.640625 C 43.9375 -61.328125 45.640625 -54.046875 49.046875 -47.796875 C 52.460938 -41.554688 56.957031 -36.769531 62.53125 -33.4375 C 68.101562 -30.113281 74.050781 -28.453125 80.375 -28.453125 C 86.863281 -28.453125 92.9375 -30.070312 98.59375 -33.3125 C 104.257812 -36.5625 108.753906 -41.222656 112.078125 -47.296875 C 115.410156 -53.378906 117.078125 -60.660156 117.078125 -69.140625 Z M 117.078125 -69.140625 "/></g></g></g><g fill="#ffffff" fill-opacity="1"><g transform="translate(599.999127, 393.666835)"><g><path d="M 8.234375 -69.640625 C 8.234375 -83.617188 11.019531 -96.015625 16.59375 -106.828125 C 22.175781 -117.648438 29.75 -125.972656 39.3125 -131.796875 C 48.882812 -137.617188 59.578125 -140.53125 71.390625 -140.53125 C 81.710938 -140.53125 90.738281 -138.453125 98.46875 -134.296875 C 106.207031 -130.140625 112.410156 -124.898438 117.078125 -118.578125 L 117.078125 -138.296875 L 152.265625 -138.296875 L 152.265625 0 L 117.078125 0 L 117.078125 -20.21875 C 112.578125 -13.726562 106.375 -8.359375 98.46875 -4.109375 C 90.570312 0.128906 81.460938 2.25 71.140625 2.25 C 59.492188 2.25 48.882812 -0.742188 39.3125 -6.734375 C 29.75 -12.722656 22.175781 -21.164062 16.59375 -32.0625 C 11.019531 -42.96875 8.234375 -55.492188 8.234375 -69.640625 Z M 117.078125 -69.140625 C 117.078125 -77.628906 115.410156 -84.910156 112.078125 -90.984375 C 108.753906 -97.054688 104.257812 -101.710938 98.59375 -104.953125 C 92.9375 -108.203125 86.863281 -109.828125 80.375 -109.828125 C 73.882812 -109.828125 67.894531 -108.242188 62.40625 -105.078125 C 56.914062 -101.921875 52.460938 -97.304688 49.046875 -91.234375 C 45.640625 -85.160156 43.9375 -77.960938 43.9375 -69.640625 C 43.9375 -61.328125 45.640625 -54.046875 49.046875 -47.796875 C 52.460938 -41.554688 56.957031 -36.769531 62.53125 -33.4375 C 68.101562 -30.113281 74.050781 -28.453125 80.375 -28.453125 C 86.863281 -28.453125 92.9375 -30.070312 98.59375 -33.3125 C 104.257812 -36.5625 108.753906 -41.222656 112.078125 -47.296875 C 115.410156 -53.378906 117.078125 -60.660156 117.078125 -69.140625 Z M 117.078125 -69.140625 "/></g></g></g><g fill="#ffffff" fill-opacity="1"><g transform="translate(769.246388, 393.666835)"><g><path d="M 77.390625 1.75 C 65.234375 1.75 54.285156 -0.328125 44.546875 -4.484375 C 34.816406 -8.648438 27.125 -14.644531 21.46875 -22.46875 C 15.8125 -30.289062 12.898438 -39.523438 12.734375 -50.171875 L 50.171875 -50.171875 C 50.671875 -43.015625 53.207031 -37.351562 57.78125 -33.1875 C 62.363281 -29.03125 68.648438 -26.953125 76.640625 -26.953125 C 84.785156 -26.953125 91.1875 -28.90625 95.84375 -32.8125 C 100.507812 -36.726562 102.84375 -41.847656 102.84375 -48.171875 C 102.84375 -53.335938 101.257812 -57.582031 98.09375 -60.90625 C 94.9375 -64.238281 90.984375 -66.859375 86.234375 -68.765625 C 81.492188 -70.679688 74.96875 -72.804688 66.65625 -75.140625 C 55.332031 -78.460938 46.132812 -81.742188 39.0625 -84.984375 C 31.988281 -88.234375 25.914062 -93.144531 20.84375 -99.71875 C 15.769531 -106.289062 13.234375 -115.070312 13.234375 -126.0625 C 13.234375 -136.375 15.8125 -145.359375 20.96875 -153.015625 C 26.125 -160.671875 33.363281 -166.535156 42.6875 -170.609375 C 52.007812 -174.691406 62.660156 -176.734375 74.640625 -176.734375 C 92.609375 -176.734375 107.207031 -172.363281 118.4375 -163.625 C 129.675781 -154.894531 135.878906 -142.707031 137.046875 -127.0625 L 98.609375 -127.0625 C 98.273438 -133.050781 95.734375 -138 90.984375 -141.90625 C 86.242188 -145.820312 79.960938 -147.78125 72.140625 -147.78125 C 65.316406 -147.78125 59.863281 -146.03125 55.78125 -142.53125 C 51.707031 -139.039062 49.671875 -133.96875 49.671875 -127.3125 C 49.671875 -122.644531 51.207031 -118.769531 54.28125 -115.6875 C 57.363281 -112.613281 61.191406 -110.117188 65.765625 -108.203125 C 70.347656 -106.296875 76.800781 -104.09375 85.125 -101.59375 C 96.4375 -98.269531 105.671875 -94.941406 112.828125 -91.609375 C 119.984375 -88.285156 126.140625 -83.296875 131.296875 -76.640625 C 136.460938 -69.984375 139.046875 -61.242188 139.046875 -50.421875 C 139.046875 -41.097656 136.628906 -32.441406 131.796875 -24.453125 C 126.972656 -16.472656 119.898438 -10.109375 110.578125 -5.359375 C 101.265625 -0.617188 90.203125 1.75 77.390625 1.75 Z M 77.390625 1.75 "/></g></g></g></svg>