<svg xmlns="http://www.w3.org/2000/svg" xmlns:xlink="http://www.w3.org/1999/xlink" width="1600" zoomAndPan="magnify" viewBox="0 0 1200 675.000002" height="900" preserveAspectRatio="xMidYMid meet" version="1.0"><defs><g/><clipPath id="b87ff7a198"><path d="M 0.886719 0 L 1199.113281 0 L 1199.113281 674 L 0.886719 674 Z M 0.886719 0 " clip-rule="nonzero"/></clipPath></defs><g clip-path="url(#b87ff7a198)"><path fill="#ffffff" d="M 0.886719 0 L 1199.113281 0 L 1199.113281 674 L 0.886719 674 Z M 0.886719 0 " fill-opacity="1" fill-rule="nonzero"/><path fill="#2a2ae1" d="M 0.886719 0 L 1199.113281 0 L 1199.113281 674 L 0.886719 674 Z M 0.886719 0 " fill-opacity="1" fill-rule="nonzero"/></g><g fill="#ffffff" fill-opacity="1"><g transform="translate(124.208776, 423.872045)"><g><path d="M 77.390625 1.75 C 65.234375 1.75 54.285156 -0.328125 44.546875 -4.484375 C 34.816406 -8.648438 27.125 -14.644531 21.46875 -22.46875 C 15.8125 -30.289062 12.898438 -39.523438 12.734375 -50.171875 L 50.171875 -50.171875 C 50.671875 -43.015625 53.207031 -37.351562 57.78125 -33.1875 C 62.363281 -29.03125 68.648438 -26.953125 76.640625 -26.953125 C 84.785156 -26.953125 91.1875 -28.90625 95.84375 -32.8125 C 100.507812 -36.726562 102.84375 -41.847656 102.84375 -48.171875 C 102.84375 -53.335938 101.257812 -57.582031 98.09375 -60.90625 C 94.9375 -64.238281 90.984375 -66.859375 86.234375 -68.765625 C 81.492188 -70.679688 74.96875 -72.804688 66.65625 -75.140625 C 55.332031 -78.460938 46.132812 -81.742188 39.0625 -84.984375 C 31.988281 -88.234375 25.914062 -93.144531 20.84375 -99.71875 C 15.769531 -106.289062 13.234375 -115.070312 13.234375 -126.0625 C 13.234375 -136.375 15.8125 -145.359375 20.96875 -153.015625 C 26.125 -160.671875 33.363281 -166.535156 42.6875 -170.609375 C 52.007812 -174.691406 62.660156 -176.734375 74.640625 -176.734375 C 92.609375 -176.734375 107.207031 -172.363281 118.4375 -163.625 C 129.675781 -154.894531 135.878906 -142.707031 137.046875 -127.0625 L 98.609375 -127.0625 C 98.273438 -133.050781 95.734375 -138 90.984375 -141.90625 C 86.242188 -145.820312 79.960938 -147.78125 72.140625 -147.78125 C 65.316406 -147.78125 59.863281 -146.03125 55.78125 -142.53125 C 51.707031 -139.039062 49.671875 -133.96875 49.671875 -127.3125 C 49.671875 -122.644531 51.207031 -118.769531 54.28125 -115.6875 C 57.363281 -112.613281 61.191406 -110.117188 65.765625 -108.203125 C 70.347656 -106.296875 76.800781 -104.09375 85.125 -101.59375 C 96.4375 -98.269531 105.671875 -94.941406 112.828125 -91.609375 C 119.984375 -88.285156 126.140625 -83.296875 131.296875 -76.640625 C 136.460938 -69.984375 139.046875 -61.242188 139.046875 -50.421875 C 139.046875 -41.097656 136.628906 -32.441406 131.796875 -24.453125 C 126.972656 -16.472656 119.898438 -10.109375 110.578125 -5.359375 C 101.265625 -0.617188 90.203125 1.75 77.390625 1.75 Z M 77.390625 1.75 "/></g></g></g><g fill="#ffffff" fill-opacity="1"><g transform="translate(276.231773, 423.872045)"><g><path d="M 149.53125 -138.296875 L 63.90625 65.40625 L 26.703125 65.40625 L 56.671875 -3.5 L 1.25 -138.296875 L 40.4375 -138.296875 L 76.140625 -41.6875 L 112.328125 -138.296875 Z M 149.53125 -138.296875 "/></g></g></g><g fill="#ffffff" fill-opacity="1"><g transform="translate(427.25629, 423.872045)"><g><path d="M 70.140625 2.25 C 58.828125 2.25 48.675781 0.210938 39.6875 -3.859375 C 30.695312 -7.941406 23.582031 -13.476562 18.34375 -20.46875 C 13.101562 -27.457031 10.234375 -35.195312 9.734375 -43.6875 L 44.9375 -43.6875 C 45.601562 -38.363281 48.222656 -33.953125 52.796875 -30.453125 C 57.367188 -26.960938 63.066406 -25.21875 69.890625 -25.21875 C 76.546875 -25.21875 81.742188 -26.546875 85.484375 -29.203125 C 89.234375 -31.867188 91.109375 -35.28125 91.109375 -39.4375 C 91.109375 -43.9375 88.820312 -47.304688 84.25 -49.546875 C 79.675781 -51.796875 72.394531 -54.253906 62.40625 -56.921875 C 52.082031 -59.410156 43.632812 -61.984375 37.0625 -64.640625 C 30.488281 -67.304688 24.832031 -71.382812 20.09375 -76.875 C 15.351562 -82.375 12.984375 -89.78125 12.984375 -99.09375 C 12.984375 -106.75 15.1875 -113.738281 19.59375 -120.0625 C 24 -126.394531 30.320312 -131.390625 38.5625 -135.046875 C 46.800781 -138.703125 56.492188 -140.53125 67.640625 -140.53125 C 84.117188 -140.53125 97.265625 -136.410156 107.078125 -128.171875 C 116.898438 -119.941406 122.3125 -108.835938 123.3125 -94.859375 L 89.859375 -94.859375 C 89.359375 -100.347656 87.070312 -104.710938 83 -107.953125 C 78.925781 -111.203125 73.476562 -112.828125 66.65625 -112.828125 C 60.332031 -112.828125 55.460938 -111.660156 52.046875 -109.328125 C 48.628906 -107.003906 46.921875 -103.757812 46.921875 -99.59375 C 46.921875 -94.9375 49.25 -91.398438 53.90625 -88.984375 C 58.570312 -86.578125 65.816406 -84.125 75.640625 -81.625 C 85.617188 -79.132812 93.851562 -76.554688 100.34375 -73.890625 C 106.832031 -71.222656 112.445312 -67.101562 117.1875 -61.53125 C 121.9375 -55.957031 124.394531 -48.59375 124.5625 -39.4375 C 124.5625 -31.445312 122.351562 -24.289062 117.9375 -17.96875 C 113.53125 -11.644531 107.207031 -6.691406 98.96875 -3.109375 C 90.738281 0.460938 81.128906 2.25 70.140625 2.25 Z M 70.140625 2.25 "/></g></g></g><g fill="#ffffff" fill-opacity="1"><g transform="translate(563.303146, 423.872045)"><g><path d="M 57.90625 -109.578125 L 57.90625 -42.6875 C 57.90625 -38.03125 59.03125 -34.660156 61.28125 -32.578125 C 63.53125 -30.492188 67.316406 -29.453125 72.640625 -29.453125 L 88.859375 -29.453125 L 88.859375 0 L 66.90625 0 C 37.445312 0 22.71875 -14.3125 22.71875 -42.9375 L 22.71875 -109.578125 L 6.234375 -109.578125 L 6.234375 -138.296875 L 22.71875 -138.296875 L 22.71875 -172.484375 L 57.90625 -172.484375 L 57.90625 -138.296875 L 88.859375 -138.296875 L 88.859375 -109.578125 Z M 57.90625 -109.578125 "/></g></g></g><g fill="#ffffff" fill-opacity="1"><g transform="translate(660.158493, 423.872045)"><g><path d="M 145.78125 -72.140625 C 145.78125 -67.148438 145.445312 -62.65625 144.78125 -58.65625 L 43.6875 -58.65625 C 44.519531 -48.675781 48.015625 -40.851562 54.171875 -35.1875 C 60.328125 -29.53125 67.898438 -26.703125 76.890625 -26.703125 C 89.867188 -26.703125 99.101562 -32.28125 104.59375 -43.4375 L 142.28125 -43.4375 C 138.289062 -30.125 130.632812 -19.179688 119.3125 -10.609375 C 108 -2.035156 94.109375 2.25 77.640625 2.25 C 64.316406 2.25 52.375 -0.703125 41.8125 -6.609375 C 31.25 -12.523438 23.007812 -20.890625 17.09375 -31.703125 C 11.1875 -42.515625 8.234375 -54.992188 8.234375 -69.140625 C 8.234375 -83.453125 11.144531 -96.015625 16.96875 -106.828125 C 22.800781 -117.648438 30.957031 -125.972656 41.4375 -131.796875 C 51.925781 -137.617188 63.992188 -140.53125 77.640625 -140.53125 C 90.785156 -140.53125 102.554688 -137.703125 112.953125 -132.046875 C 123.359375 -126.390625 131.429688 -118.359375 137.171875 -107.953125 C 142.910156 -97.554688 145.78125 -85.617188 145.78125 -72.140625 Z M 109.578125 -82.125 C 109.410156 -91.113281 106.164062 -98.3125 99.84375 -103.71875 C 93.519531 -109.125 85.785156 -111.828125 76.640625 -111.828125 C 67.984375 -111.828125 60.703125 -109.207031 54.796875 -103.96875 C 48.890625 -98.726562 45.269531 -91.445312 43.9375 -82.125 Z M 109.578125 -82.125 "/></g></g></g><g fill="#ffffff" fill-opacity="1"><g transform="translate(814.178497, 423.872045)"><g><path d="M 188.96875 -140.296875 C 205.9375 -140.296875 219.617188 -135.09375 230.015625 -124.6875 C 240.421875 -114.289062 245.625 -99.769531 245.625 -81.125 L 245.625 0 L 210.6875 0 L 210.6875 -76.390625 C 210.6875 -87.203125 207.9375 -95.476562 202.4375 -101.21875 C 196.945312 -106.957031 189.460938 -109.828125 179.984375 -109.828125 C 170.492188 -109.828125 162.960938 -106.957031 157.390625 -101.21875 C 151.816406 -95.476562 149.03125 -87.203125 149.03125 -76.390625 L 149.03125 0 L 114.078125 0 L 114.078125 -76.390625 C 114.078125 -87.203125 111.332031 -95.476562 105.84375 -101.21875 C 100.351562 -106.957031 92.863281 -109.828125 83.375 -109.828125 C 73.71875 -109.828125 66.101562 -106.957031 60.53125 -101.21875 C 54.957031 -95.476562 52.171875 -87.203125 52.171875 -76.390625 L 52.171875 0 L 17.21875 0 L 17.21875 -138.296875 L 52.171875 -138.296875 L 52.171875 -121.5625 C 56.660156 -127.382812 62.441406 -131.960938 69.515625 -135.296875 C 76.585938 -138.628906 84.367188 -140.296875 92.859375 -140.296875 C 103.679688 -140.296875 113.332031 -138.003906 121.8125 -133.421875 C 130.300781 -128.847656 136.875 -122.316406 141.53125 -113.828125 C 146.03125 -121.816406 152.5625 -128.222656 161.125 -133.046875 C 169.695312 -137.878906 178.976562 -140.296875 188.96875 -140.296875 Z M 188.96875 -140.296875 "/></g></g></g></svg>