<svg xmlns="http://www.w3.org/2000/svg" xmlns:xlink="http://www.w3.org/1999/xlink" width="1600" zoomAndPan="magnify" viewBox="0 0 1200 675.000002" height="900" preserveAspectRatio="xMidYMid meet" version="1.0"><defs><g/><clipPath id="9bfabebd5e"><path d="M 0.886719 0 L 1199.113281 0 L 1199.113281 674 L 0.886719 674 Z M 0.886719 0 " clip-rule="nonzero"/></clipPath></defs><g clip-path="url(#9bfabebd5e)"><path fill="#ffffff" d="M 0.886719 0 L 1199.113281 0 L 1199.113281 674 L 0.886719 674 Z M 0.886719 0 " fill-opacity="1" fill-rule="nonzero"/><path fill="#2a2ae1" d="M 0.886719 0 L 1199.113281 0 L 1199.113281 674 L 0.886719 674 Z M 0.886719 0 " fill-opacity="1" fill-rule="nonzero"/></g><g fill="#ffffff" fill-opacity="1"><g transform="translate(310.553795, 423.872045)"><g><path d="M 250.125 -174.234375 L 201.453125 0 L 160.265625 0 L 127.5625 -124.0625 L 93.359375 0 L 52.421875 0.25 L 5.484375 -174.234375 L 42.9375 -174.234375 L 73.640625 -38.9375 L 109.09375 -174.234375 L 148.03125 -174.234375 L 181.484375 -39.6875 L 212.4375 -174.234375 Z M 250.125 -174.234375 "/></g></g></g><g fill="#ffffff" fill-opacity="1"><g transform="translate(566.172082, 423.872045)"><g><path d="M 145.78125 -72.140625 C 145.78125 -67.148438 145.445312 -62.65625 144.78125 -58.65625 L 43.6875 -58.65625 C 44.519531 -48.675781 48.015625 -40.851562 54.171875 -35.1875 C 60.328125 -29.53125 67.898438 -26.703125 76.890625 -26.703125 C 89.867188 -26.703125 99.101562 -32.28125 104.59375 -43.4375 L 142.28125 -43.4375 C 138.289062 -30.125 130.632812 -19.179688 119.3125 -10.609375 C 108 -2.035156 94.109375 2.25 77.640625 2.25 C 64.316406 2.25 52.375 -0.703125 41.8125 -6.609375 C 31.25 -12.523438 23.007812 -20.890625 17.09375 -31.703125 C 11.1875 -42.515625 8.234375 -54.992188 8.234375 -69.140625 C 8.234375 -83.453125 11.144531 -96.015625 16.96875 -106.828125 C 22.800781 -117.648438 30.957031 -125.972656 41.4375 -131.796875 C 51.925781 -137.617188 63.992188 -140.53125 77.640625 -140.53125 C 90.785156 -140.53125 102.554688 -137.703125 112.953125 -132.046875 C 123.359375 -126.390625 131.429688 -118.359375 137.171875 -107.953125 C 142.910156 -97.554688 145.78125 -85.617188 145.78125 -72.140625 Z M 109.578125 -82.125 C 109.410156 -91.113281 106.164062 -98.3125 99.84375 -103.71875 C 93.519531 -109.125 85.785156 -111.828125 76.640625 -111.828125 C 67.984375 -111.828125 60.703125 -109.207031 54.796875 -103.96875 C 48.890625 -98.726562 45.269531 -91.445312 43.9375 -82.125 Z M 109.578125 -82.125 "/></g></g></g><g fill="#ffffff" fill-opacity="1"><g transform="translate(720.192063, 423.872045)"><g><path d="M 52.171875 -118.078125 C 56.660156 -124.734375 62.859375 -130.140625 70.765625 -134.296875 C 78.671875 -138.453125 87.703125 -140.53125 97.859375 -140.53125 C 109.671875 -140.53125 120.359375 -137.617188 129.921875 -131.796875 C 139.492188 -125.972656 147.066406 -117.691406 152.640625 -106.953125 C 158.222656 -96.222656 161.015625 -83.785156 161.015625 -69.640625 C 161.015625 -55.492188 158.222656 -42.96875 152.640625 -32.0625 C 147.066406 -21.164062 139.492188 -12.722656 129.921875 -6.734375 C 120.359375 -0.742188 109.671875 2.25 97.859375 2.25 C 87.535156 2.25 78.503906 0.210938 70.765625 -3.859375 C 63.023438 -7.941406 56.828125 -13.226562 52.171875 -19.71875 L 52.171875 0 L 17.21875 0 L 17.21875 -184.71875 L 52.171875 -184.71875 Z M 125.3125 -69.640625 C 125.3125 -77.960938 123.601562 -85.160156 120.1875 -91.234375 C 116.78125 -97.304688 112.289062 -101.921875 106.71875 -105.078125 C 101.144531 -108.242188 95.109375 -109.828125 88.609375 -109.828125 C 82.285156 -109.828125 76.335938 -108.203125 70.765625 -104.953125 C 65.191406 -101.710938 60.695312 -97.015625 57.28125 -90.859375 C 53.875 -84.703125 52.171875 -77.460938 52.171875 -69.140625 C 52.171875 -60.828125 53.875 -53.585938 57.28125 -47.421875 C 60.695312 -41.265625 65.191406 -36.5625 70.765625 -33.3125 C 76.335938 -30.070312 82.285156 -28.453125 88.609375 -28.453125 C 95.109375 -28.453125 101.144531 -30.113281 106.71875 -33.4375 C 112.289062 -36.769531 116.78125 -41.515625 120.1875 -47.671875 C 123.601562 -53.835938 125.3125 -61.160156 125.3125 -69.640625 Z M 125.3125 -69.640625 "/></g></g></g></svg>